HIERARCHY
ROOT mixamorig:Hips
{
	OFFSET 0.00 0.00 0.00
	CHANNELS 6 Xposition Yposition Zposition Zrotation Yrotation Xrotation
	JOINT mixamorig:Spine
	{
		OFFSET	0.0000	18.1814	-1.2657
		CHANNELS 3 Zrotation Yrotation Xrotation
		JOINT mixamorig:Spine1
		{
			OFFSET	0.0000	21.2116	-1.4766
			CHANNELS 3 Zrotation Yrotation Xrotation
			JOINT mixamorig:Spine2
			{
				OFFSET	0.0000	24.2418	-1.6876
				CHANNELS 3 Zrotation Yrotation Xrotation
				JOINT mixamorig:Neck
				{
					OFFSET	0.0000	27.2721	-1.8985
					CHANNELS 3 Zrotation Yrotation Xrotation
					JOINT mixamorig:Head
					{
						OFFSET	0.0000	19.2675	11.0567
						CHANNELS 3 Zrotation Yrotation Xrotation
						End Site
						{
							OFFSET 0.0000 24.3175 13.9547
						}
					}
				}
				JOINT mixamorig:LeftShoulder
				{
					OFFSET	11.1378	22.4970	-1.8453
					CHANNELS 3 Zrotation Yrotation Xrotation
					JOINT mixamorig:LeftArm
					{
						OFFSET	22.5443	-9.5607	0.1064
						CHANNELS 3 Zrotation Yrotation Xrotation
						JOINT mixamorig:LeftForeArm
						{
							OFFSET	36.6820	-29.7524	1.0803
							CHANNELS 3 Zrotation Yrotation Xrotation
							JOINT mixamorig:LeftHand
							{
								OFFSET	31.5369	-19.9944	12.1524
								CHANNELS 3 Zrotation Yrotation Xrotation
								JOINT mixamorig:LeftHandThumb1
								{
									OFFSET	4.9599	-0.9231	6.1931
									CHANNELS 3 Zrotation Yrotation Xrotation
									JOINT mixamorig:LeftHandThumb2
									{
										OFFSET	3.9680	-0.7385	4.9545
										CHANNELS 3 Zrotation Yrotation Xrotation
										JOINT mixamorig:LeftHandThumb3
										{
											OFFSET	2.6659	-0.6866	5.6569
											CHANNELS 3 Zrotation Yrotation Xrotation
											End Site
											{
												OFFSET 1.5547 -1.3984 5.5730
											}
										}
									}
								}
								JOINT mixamorig:LeftHandIndex1
								{
									OFFSET	18.1775	-8.9471	9.0866
									CHANNELS 3 Zrotation Yrotation Xrotation
									JOINT mixamorig:LeftHandIndex2
									{
										OFFSET	3.6487	-3.5375	2.7198
										CHANNELS 3 Zrotation Yrotation Xrotation
										JOINT mixamorig:LeftHandIndex3
										{
											OFFSET	3.2693	-3.0618	3.2608
											CHANNELS 3 Zrotation Yrotation Xrotation
											End Site
											{
												OFFSET 2.9406 -2.7563 3.0161
											}
										}
									}
								}
								JOINT mixamorig:LeftHandMiddle1
								{
									OFFSET	15.4929	-12.1332	8.4794
									CHANNELS 3 Zrotation Yrotation Xrotation
									JOINT mixamorig:LeftHandMiddle2
									{
										OFFSET	3.0430	-4.5934	2.5842
										CHANNELS 3 Zrotation Yrotation Xrotation
										JOINT mixamorig:LeftHandMiddle3
										{
											OFFSET	2.0309	-3.0389	4.3641
											CHANNELS 3 Zrotation Yrotation Xrotation
											End Site
											{
												OFFSET 1.4686 -2.1845 4.3427
											}
										}
									}
								}
								JOINT mixamorig:LeftHandRing1
								{
									OFFSET	10.9642	-15.9150	7.2800
									CHANNELS 3 Zrotation Yrotation Xrotation
									JOINT mixamorig:LeftHandRing2
									{
										OFFSET	2.1003	-3.8406	2.8862
										CHANNELS 3 Zrotation Yrotation Xrotation
										JOINT mixamorig:LeftHandRing3
										{
											OFFSET	1.2313	-2.4652	3.8370
											CHANNELS 3 Zrotation Yrotation Xrotation
											End Site
											{
												OFFSET 0.5948 -1.4067 4.1995
											}
										}
									}
								}
								JOINT mixamorig:LeftHandPinky1
								{
									OFFSET	5.7467	-17.6622	7.3864
									CHANNELS 3 Zrotation Yrotation Xrotation
									JOINT mixamorig:LeftHandPinky2
									{
										OFFSET	1.5275	-2.5984	2.2715
										CHANNELS 3 Zrotation Yrotation Xrotation
										JOINT mixamorig:LeftHandPinky3
										{
											OFFSET	0.5729	-0.9842	2.8271
											CHANNELS 3 Zrotation Yrotation Xrotation
											End Site
											{
												OFFSET 0.5189 -0.8111 2.1957
											}
										}
									}
								}
							}
						}
					}
				}
				JOINT mixamorig:RightShoulder
				{
					OFFSET	-11.1378	22.4970	-1.9517
					CHANNELS 3 Zrotation Yrotation Xrotation
					JOINT mixamorig:RightArm
					{
						OFFSET	-22.5443	-9.5607	-0.1064
						CHANNELS 3 Zrotation Yrotation Xrotation
						JOINT mixamorig:RightForeArm
						{
							OFFSET	-36.6819	-29.7524	1.4161
							CHANNELS 3 Zrotation Yrotation Xrotation
							JOINT mixamorig:RightHand
							{
								OFFSET	-31.5368	-19.9944	11.8595
								CHANNELS 3 Zrotation Yrotation Xrotation
								JOINT mixamorig:RightHandThumb1
								{
									OFFSET	-5.4858	-0.8573	6.4585
									CHANNELS 3 Zrotation Yrotation Xrotation
									JOINT mixamorig:RightHandThumb2
									{
										OFFSET	-4.3886	-0.6858	5.1667
										CHANNELS 3 Zrotation Yrotation Xrotation
										JOINT mixamorig:RightHandThumb3
										{
											OFFSET	-2.5483	-0.8355	5.5939
											CHANNELS 3 Zrotation Yrotation Xrotation
											End Site
											{
												OFFSET -1.9965 -1.6626 4.6620
											}
										}
									}
								}
								JOINT mixamorig:RightHandIndex1
								{
									OFFSET	-18.7763	-8.7751	9.4831
									CHANNELS 3 Zrotation Yrotation Xrotation
									JOINT mixamorig:RightHandIndex2
									{
										OFFSET	-3.8956	-3.7655	2.7666
										CHANNELS 3 Zrotation Yrotation Xrotation
										JOINT mixamorig:RightHandIndex3
										{
											OFFSET	-3.3474	-3.0775	3.2109
											CHANNELS 3 Zrotation Yrotation Xrotation
											End Site
											{
												OFFSET -2.7188 -2.2708 3.6376
											}
										}
									}
								}
								JOINT mixamorig:RightHandMiddle1
								{
									OFFSET	-16.7859	-12.8065	8.6103
									CHANNELS 3 Zrotation Yrotation Xrotation
									JOINT mixamorig:RightHandMiddle2
									{
										OFFSET	-2.6877	-4.2765	3.1425
										CHANNELS 3 Zrotation Yrotation Xrotation
										JOINT mixamorig:RightHandMiddle3
										{
											OFFSET	-1.7777	-2.8711	4.2706
											CHANNELS 3 Zrotation Yrotation Xrotation
											End Site
											{
												OFFSET -1.2846 -2.0944 4.2752
											}
										}
									}
								}
								JOINT mixamorig:RightHandRing1
								{
									OFFSET	-11.3444	-15.2451	7.6371
									CHANNELS 3 Zrotation Yrotation Xrotation
									JOINT mixamorig:RightHandRing2
									{
										OFFSET	-2.2150	-4.2759	2.4721
										CHANNELS 3 Zrotation Yrotation Xrotation
										JOINT mixamorig:RightHandRing3
										{
											OFFSET	-1.2674	-2.7806	3.9516
											CHANNELS 3 Zrotation Yrotation Xrotation
											End Site
											{
												OFFSET -0.4188 -1.3418 4.3716
											}
										}
									}
								}
								JOINT mixamorig:RightHandPinky1
								{
									OFFSET	-6.2920	-16.6807	7.4774
									CHANNELS 3 Zrotation Yrotation Xrotation
									JOINT mixamorig:RightHandPinky2
									{
										OFFSET	-1.6010	-3.2202	2.1243
										CHANNELS 3 Zrotation Yrotation Xrotation
										JOINT mixamorig:RightHandPinky3
										{
											OFFSET	-0.5887	-1.2939	3.0352
											CHANNELS 3 Zrotation Yrotation Xrotation
											End Site
											{
												OFFSET -0.1025 -0.3920 3.0221
											}
										}
									}
								}
							}
						}
					}
				}
			}
		}
	}
	JOINT mixamorig:LeftUpLeg
	{
		OFFSET	19.3175	-10.1118	0.1558
		CHANNELS 3 Zrotation Yrotation Xrotation
		JOINT mixamorig:LeftLeg
		{
			OFFSET	10.1505	-80.5711	-4.9869
			CHANNELS 3 Zrotation Yrotation Xrotation
			JOINT mixamorig:LeftFoot
			{
				OFFSET	12.8208	-69.2194	-9.7860
				CHANNELS 3 Zrotation Yrotation Xrotation
				JOINT mixamorig:LeftToeBase
				{
					OFFSET	10.0534	-21.1412	23.1616
					CHANNELS 3 Zrotation Yrotation Xrotation
					End Site
					{
						OFFSET 3.9852 -0.2580 11.6899
					}
				}
			}
		}
	}
	JOINT mixamorig:RightUpLeg
	{
		OFFSET	-19.3175	-10.1118	0.1978
		CHANNELS 3 Zrotation Yrotation Xrotation
		JOINT mixamorig:RightLeg
		{
			OFFSET	-10.1506	-80.5711	-4.2453
			CHANNELS 3 Zrotation Yrotation Xrotation
			JOINT mixamorig:RightFoot
			{
				OFFSET	-12.8204	-69.2174	-10.6194
				CHANNELS 3 Zrotation Yrotation Xrotation
				JOINT mixamorig:RightToeBase
				{
					OFFSET	-10.0541	-21.1451	23.8957
					CHANNELS 3 Zrotation Yrotation Xrotation
					End Site
					{
						OFFSET -3.9855 -0.2599 11.9614
					}
				}
			}
		}
	}
}
MOTION
Frames: 4
Frame Time: 0.0333333
-1.2450 105.1347 -5.1550 -6.1403 -1.0781 87.6344 -1.3017 -1.6563 5.8546 2.7067 3.1062 10.3132 1.7353 3.0163 10.5445 -2.3539 -7.8766 -22.5598 -2.8566 19.2734 -34.9522 12.9075 -18.5768 -1.8411 41.9220 34.1555 -61.3678 -5.0901 -10.3982 -55.3644 87.4254 -31.3873 49.8223 5.6664 16.1372 4.3267 10.1373 12.3369 7.7016 66.5909 6.3624 3.3677 3.3274 6.5915 0.0352 -1.5911 5.2000 6.0894 -0.5088 -0.3720 -0.2757 10.9946 9.1827 7.3313 -1.3341 8.0419 13.9210 -2.0443 -3.5104 -0.9334 9.3183 12.8073 16.9200 0.9221 7.6515 11.5155 -1.4717 0.2092 5.4312 -1.5026 3.1081 15.2141 -1.5093 7.3657 17.8389 -0.3587 -1.4211 -0.8609 -25.5025 23.3734 -5.9891 -14.2658 2.0602 -49.2825 -10.0122 16.5247 -11.9271 -118.8858 21.3598 42.9175 -3.4046 -7.1021 -3.2778 1.0528 -22.2358 10.3427 -8.0542 -5.7543 -15.4081 -1.2309 -0.1697 -11.7747 -5.5772 44.1555 -37.9850 -66.4510 70.4473 -105.2819 -14.3380 -14.5827 9.8691 7.3119 11.2964 -7.4590 0.8408 32.6941 -31.6548 -18.7383 -14.1618 9.4866 0.3233 43.0842 -52.3232 -7.1209 44.1573 -53.2505 -18.2597 -15.0597 9.6993 8.0375 12.3107 -2.6405 -70.9608 44.1424 -141.7391 -5.0356 27.7779 -84.6990 26.1187 18.8056 89.0536 -23.4826 -8.3166 -34.4638 0.0000 -0.0000 -35.2428 -4.3775 -32.2108 -81.6458 2.2279 -12.3684 75.3079 11.7230 -0.9945 -1.1726 8.7214 2.1399 9.7722 
2.1804 103.2162 4.6161 -11.4050 -1.0174 88.0514 -0.0311 0.3034 5.7422 4.3573 5.3394 10.1581 3.5008 5.1739 10.5585 -5.0433 -5.1546 -21.9304 -2.9415 18.3265 -34.8159 17.7522 -16.5149 -1.5307 46.5154 35.6837 -61.5848 -14.0258 -0.8160 -48.0242 85.3830 -33.6117 50.0162 5.6663 16.1372 4.3267 5.3293 12.0380 7.1294 40.9914 0.5019 7.6117 -0.6630 2.2331 -0.6130 -3.7240 2.5240 0.8818 0.9310 6.0893 4.8163 12.2708 13.9717 12.9817 -4.0428 10.1445 12.0869 -0.5731 3.1992 5.5860 9.7884 11.3932 18.8977 -3.1848 -2.8358 -0.6352 -0.9973 1.9926 7.2866 -0.6588 5.4992 19.9709 0.0258 9.9731 20.7373 -0.9674 -5.9160 -4.9275 -22.5382 33.3036 -6.5730 -14.4159 -5.4743 -38.0435 -17.6537 15.2713 -15.8324 -119.1194 19.5153 39.8445 -2.7890 -9.0985 -2.6154 -0.2890 -21.2780 9.8533 -11.0801 -0.1440 -16.2142 -1.4257 6.4672 -17.4389 -17.4298 53.7969 -56.5644 -72.8409 69.7920 -112.7768 -14.0578 -13.4840 8.7254 6.4904 27.0473 -23.8172 -4.8948 41.4758 -44.9388 -17.8552 -12.2517 6.2596 0.5514 42.8901 -51.8579 -10.9070 46.7931 -60.1640 -21.6219 -18.7905 16.0506 8.8178 20.3844 -11.2740 -68.1775 46.0505 -136.8492 -3.0775 29.4385 -78.2583 32.7212 20.3180 86.5126 -26.5607 -8.1081 -31.1149 -1.7790 -1.6457 -37.2484 -1.6101 -31.0904 -85.0980 5.8171 -11.9423 74.9242 12.9427 0.0739 -6.3228 7.7290 2.1578 3.6051 
5.2922 100.6293 15.1133 -15.8891 -0.9819 88.2568 1.4251 2.0068 5.6232 5.6731 6.2699 10.1966 4.9945 6.0579 10.6548 -7.7961 -2.2936 -21.2725 -2.9689 17.3353 -34.6536 22.6895 -14.5554 -1.2351 47.4579 35.5677 -56.7930 -15.1162 2.0932 -46.4946 79.5281 -37.1521 63.2012 5.6663 16.1372 4.3267 1.0003 11.3499 7.3271 20.7426 -0.9123 14.5943 -3.6391 -1.5588 -0.8235 -4.8100 2.7966 -2.0217 2.8979 11.6375 9.7076 13.4384 18.6799 17.7361 -6.9278 11.9224 9.9877 1.3093 8.7654 11.3674 9.8715 9.8326 19.7224 -5.1577 -13.0167 -11.6542 -2.9263 -5.4458 -0.3360 0.0091 6.9753 23.2036 1.3349 11.9625 23.0850 -1.2296 -9.7304 -8.3352 -12.3864 40.7366 -3.9127 -27.3244 -11.4111 -27.8414 -12.5320 18.5851 -13.9735 -121.9515 18.6000 40.8835 -2.2009 -11.0749 -1.9793 -1.6634 -20.0806 9.2885 -14.3167 6.1565 -17.9386 -1.7685 11.0256 -21.1950 -38.9263 60.0291 -84.9314 -80.3791 68.5531 -121.6651 -14.1343 -13.2351 9.0196 -0.7533 42.5795 -45.2001 -15.0469 49.2605 -62.7283 -17.6499 -11.6109 5.3110 0.5322 42.9975 -51.9726 -15.8551 49.3256 -68.5478 -26.0862 -22.4281 23.4302 8.1588 29.0591 -21.0364 -65.5563 47.5654 -132.4442 -1.7847 30.7840 -71.8732 39.8014 22.9742 84.0062 -29.0652 -7.0609 -26.3244 -4.4410 -4.6415 -40.4184 0.6387 -31.1391 -95.1237 9.0829 -14.2865 81.2602 12.7619 1.4543 -12.6447 6.2375 1.6711 -7.2103 
7.5088 98.1984 26.2576 -19.2420 -1.0690 88.2622 2.9923 3.4277 5.5712 6.3935 6.1110 10.4896 5.8887 5.9022 10.8884 -10.1269 0.3330 -20.8074 -3.1320 16.2008 -34.4508 22.2511 -15.9839 1.4943 53.2316 36.2731 -47.9172 -10.4228 0.6378 -44.2261 67.2658 -36.2815 87.2542 5.6663 16.1372 4.3267 -1.5767 10.2938 7.1596 8.7615 -0.2423 19.8468 -4.8595 -4.4112 -0.9963 -4.5201 6.4594 -2.0151 5.1136 15.5326 13.9416 13.8302 21.9305 20.0208 -10.3330 11.0260 6.1420 3.1531 12.8629 16.0112 9.5414 8.1905 18.4600 -5.5852 -22.4683 -21.5754 -3.0200 -25.7131 -20.8893 0.5175 6.9270 23.2293 1.8914 12.7514 24.0548 -1.2775 -11.9061 -10.2694 -9.0723 42.6041 -2.2097 -37.7385 -8.2478 -17.8337 -7.4511 21.6138 -15.0859 -112.8212 23.2080 38.3972 -1.6312 -13.0541 -1.3610 -3.0660 -18.7947 8.6539 -17.7015 12.5896 -20.6318 -0.8546 10.0830 -19.6172 -59.4163 60.1597 -110.6607 -81.8058 68.3742 -123.5634 -15.2607 -15.5500 13.0521 -13.8835 52.3144 -68.4839 -26.2427 53.3117 -79.6087 -19.4000 -14.8496 10.4962 1.3795 41.9721 -49.9999 -19.4078 50.6249 -74.2463 -28.6293 -24.6001 28.8039 6.4126 35.5413 -29.1984 -60.7652 49.5756 -124.8764 -1.3358 31.6219 -64.9242 44.7137 27.6423 79.5238 -30.0465 -5.4675 -21.3397 -6.5212 -7.3973 -43.0206 3.1995 -31.1779 -106.8759 11.0701 -17.6811 88.1308 11.6848 2.3587 -17.2488 5.0420 0.6421 -17.8642 
